<svg id="Capa_1" enable-background="new 0 0 497 497" height="512" viewBox="0 0 497 497" width="512" xmlns="http://www.w3.org/2000/svg"><path d="m0 162.66h497v294.142h-497z" fill="#0091e1"/><path d="m257.392 43.894c6.785-3.669 14.696-4.65 22.171-2.747l58.766 14.978c7.795 1.99 14.531 6.911 18.783 13.755l6.756 10.852c3.698 5.941 8.678 10.969 14.59 14.726l14.687 9.319c12.386 7.863 21.851 19.569 26.947 33.324l9.105 24.559h-279.068l-20.295-11.759 33.903-54.532 70.951-29.72z" fill="#a4e6ff"/><path d="m265.565 424.186c7.94 3.436 17.172-.175 20.666-8.096l18.822-42.556c2.204-5.009 5.562-9.426 9.775-12.901l24.986-20.598c4.747-3.922 8.251-9.134 10.086-15.007l13.415-43.012c2.223-7.135 7.028-13.182 13.464-16.968l22.219-13.046c6.717-3.951 11.532-10.474 13.328-18.055l16.871-71.288h-279.068l-7.673 18.442 11.106 67.017 65.486 49.401 36.963 68.246 1.382 47.79z" fill="#5bd6fd"/><path d="m270.681 354.897-5.116 69.289-2.039-.874c-9.726-4.203-17.754-11.58-22.782-20.919l-15.114-28.121c-2.262-4.193-4.087-8.61-5.465-13.163l-10.755-35.499c-3.038-10.008-10.552-18.045-20.336-21.753l-40.944-15.473c-7.474-2.825-12.901-9.406-14.25-17.279l-4.475-26.131c-.961-5.562-3.96-10.571-8.426-14.027l-26.238-20.317c-5.737-4.436-9.668-10.794-11.076-17.909l-5.96-30.063h72.424c-.893 6.086-.553 12.357 1.087 18.414l8.979 33.237c1.893 7.028 6.96 12.774 13.706 15.522l44.186 18.055c5.242 2.145 9.358 6.378 11.367 11.668l14.531 38.42c.883 2.32 2.029 4.523 3.427 6.562l16.007 23.394c5.408 7.903 7.97 17.416 7.262 26.967z" fill="#00b4fb"/><path d="m257.392 43.894-31.16 56.815c-4.708 8.591-12.794 14.823-22.297 17.201l-27.034 6.756c-6.164 1.543-11.445 5.484-14.677 10.95l-6.28 10.62c-3.009 5.096-4.96 10.678-5.815 16.424h-72.424l49.253-62.193c8.911-11.25 21.715-18.764 35.887-21.045l32.722-5.281c5.523-.893 10.862-2.708 15.784-5.368z" fill="#5bd6fd"/><g fill="#423e4f"><path d="m248.51 136.573c-4.142 0-7.5-3.358-7.5-7.5v-11.116c0-4.142 3.358-7.5 7.5-7.5s7.5 3.358 7.5 7.5v11.116c0 4.142-3.358 7.5-7.5 7.5z"/><path d="m364.205 136.573c-4.142 0-7.5-3.358-7.5-7.5v-11.116c0-4.142 3.358-7.5 7.5-7.5s7.5 3.358 7.5 7.5v11.116c0 4.142-3.358 7.5-7.5 7.5z"/><path d="m306.358 143.19c-8.013 0-15.633-3.47-20.905-9.521-2.721-3.123-2.396-7.86.727-10.582 3.123-2.721 7.86-2.396 10.582.727 2.423 2.78 5.921 4.375 9.597 4.375 3.675 0 7.173-1.595 9.597-4.376 2.72-3.123 7.458-3.448 10.582-.726 3.123 2.722 3.448 7.459.726 10.582-5.275 6.051-12.894 9.521-20.906 9.521z"/></g></svg>