<svg width="1280" height="720" xmlns="http://www.w3.org/2000/svg" xmlns:xlink="http://www.w3.org/1999/xlink" overflow="hidden"><defs><clipPath id="clip0"><rect x="0" y="0" width="1280" height="720"/></clipPath></defs><g clip-path="url(#clip0)"><rect x="0" y="0" width="1280" height="720" fill="#FFFFFF"/><rect x="630.5" y="14.5001" width="567" height="693" stroke="#000000" stroke-width="1.33333" stroke-miterlimit="8" fill="none"/><text font-family="Segoe UI,Segoe UI_MSFontService,sans-serif" font-weight="400" font-size="24" transform="translate(845.47 42)">Blob<tspan font-size="24" x="54.3333" y="0">Storage</tspan></text><rect x="630.5" y="56.5001" width="567" height="160" stroke="#000000" stroke-width="1.33333" stroke-miterlimit="8" stroke-dasharray="1.33333 1.33333" fill="none"/><text font-family="Segoe UI,Segoe UI_MSFontService,sans-serif" font-weight="400" font-size="19" transform="translate(834.116 79)">B<tspan font-size="19" x="10.6667" y="0">inaryFileMetadata</tspan><tspan font-size="13" x="38.46" y="17">Table Storage</tspan></text><path d="M731 564.727 830.402 564.727 830.402 588.727 731 588.727Z" fill="#4472C4" fill-rule="evenodd"/><path d="M830.402 564.727 1028.8 564.727 1028.8 588.727 830.402 588.727Z" fill="#4472C4" fill-rule="evenodd"/><path d="M1028.8 564.727 1128.2 564.727 1128.2 588.727 1028.8 588.727Z" fill="#4472C4" fill-rule="evenodd"/><path d="M731 588.727 830.402 588.727 830.402 612.727 731 612.727Z" fill="#CFD5EA" fill-rule="evenodd"/><path d="M830.402 588.727 1028.8 588.727 1028.8 612.727 830.402 612.727Z" fill="#CFD5EA" fill-rule="evenodd"/><path d="M1028.8 588.727 1128.2 588.727 1128.2 612.727 1028.8 612.727Z" fill="#CFD5EA" fill-rule="evenodd"/><path d="M731 612.727 830.402 612.727 830.402 636.727 731 636.727Z" fill="#E9EBF5" fill-rule="evenodd"/><path d="M830.402 612.727 1028.8 612.727 1028.8 636.727 830.402 636.727Z" fill="#E9EBF5" fill-rule="evenodd"/><path d="M1028.8 612.727 1128.2 612.727 1128.2 636.727 1028.8 636.727Z" fill="#E9EBF5" fill-rule="evenodd"/><path d="M731 636.727 830.402 636.727 830.402 660.727 731 660.727Z" fill="#CFD5EA" fill-rule="evenodd"/><path d="M830.402 636.727 1028.8 636.727 1028.8 660.727 830.402 660.727Z" fill="#CFD5EA" fill-rule="evenodd"/><path d="M1028.8 636.727 1128.2 636.727 1128.2 660.727 1028.8 660.727Z" fill="#CFD5EA" fill-rule="evenodd"/><path d="M731 660.727 830.402 660.727 830.402 684.727 731 684.727Z" fill="#E9EBF5" fill-rule="evenodd"/><path d="M830.402 660.727 1028.8 660.727 1028.8 684.727 830.402 684.727Z" fill="#E9EBF5" fill-rule="evenodd"/><path d="M1028.8 660.727 1128.2 660.727 1128.2 684.727 1028.8 684.727Z" fill="#E9EBF5" fill-rule="evenodd"/><path d="M830.402 564.06 830.402 685.393" stroke="#FFFFFF" stroke-width="1.33333" stroke-linejoin="round" stroke-miterlimit="10" fill="none" fill-rule="evenodd"/><path d="M1028.8 564.06 1028.8 685.393" stroke="#FFFFFF" stroke-width="1.33333" stroke-linejoin="round" stroke-miterlimit="10" fill="none" fill-rule="evenodd"/><path d="M730.333 588.727 1128.87 588.727" stroke="#FFFFFF" stroke-width="4" stroke-linejoin="round" stroke-miterlimit="10" fill="none" fill-rule="evenodd"/><path d="M730.333 612.727 1128.87 612.727" stroke="#FFFFFF" stroke-width="1.33333" stroke-linejoin="round" stroke-miterlimit="10" fill="none" fill-rule="evenodd"/><path d="M730.333 636.727 1128.87 636.727" stroke="#FFFFFF" stroke-width="1.33333" stroke-linejoin="round" stroke-miterlimit="10" fill="none" fill-rule="evenodd"/><path d="M730.333 660.727 1128.87 660.727" stroke="#FFFFFF" stroke-width="1.33333" stroke-linejoin="round" stroke-miterlimit="10" fill="none" fill-rule="evenodd"/><path d="M731 564.06 731 685.393" stroke="#FFFFFF" stroke-width="1.33333" stroke-linejoin="round" stroke-miterlimit="10" fill="none" fill-rule="evenodd"/><path d="M1128.2 564.06 1128.2 685.393" stroke="#FFFFFF" stroke-width="1.33333" stroke-linejoin="round" stroke-miterlimit="10" fill="none" fill-rule="evenodd"/><path d="M730.333 564.727 1128.87 564.727" stroke="#FFFFFF" stroke-width="1.33333" stroke-linejoin="round" stroke-miterlimit="10" fill="none" fill-rule="evenodd"/><path d="M730.333 684.727 1128.87 684.727" stroke="#FFFFFF" stroke-width="1.33333" stroke-linejoin="round" stroke-miterlimit="10" fill="none" fill-rule="evenodd"/><text fill="#FFFFFF" font-family="Calibri,Calibri_MSFontService,sans-serif" font-weight="700" font-size="12" transform="translate(740.6 581)">BinaryHash<tspan font-size="12" x="99.4016" y="0">RelativeName</tspan><tspan font-size="12" x="297.802" y="0">Version</tspan><tspan fill="#000000" font-weight="400" font-size="12" x="0" y="24">binaryhash1</tspan><tspan fill="#000000" font-weight="400" font-size="12" x="99.4016" y="24">report v1.doc.pointer.arius</tspan><tspan fill="#000000" font-weight="400" font-size="12" x="297.802" y="24">01/10/2021</tspan><tspan fill="#000000" font-weight="400" font-size="12" x="0" y="48">binaryhash1</tspan><tspan fill="#000000" font-weight="400" font-size="12" x="99.4016" y="48">report v1 (copy).</tspan><tspan fill="#000000" font-weight="400" font-size="12" x="180.735" y="48">doc.pointer.arius</tspan><tspan fill="#000000" font-weight="400" font-size="12" x="297.802" y="48">01/10/2021</tspan><tspan fill="#000000" font-weight="400" font-size="12" x="0" y="72">binaryhash2</tspan><tspan fill="#000000" font-weight="400" font-size="12" x="99.4016" y="72">report v2.doc.pointer.arius</tspan><tspan fill="#000000" font-weight="400" font-size="12" x="297.802" y="72">02/10/2021</tspan><tspan fill="#000000" font-weight="400" font-size="12" x="0" y="96">binaryhash3</tspan><tspan fill="#000000" font-weight="400" font-size="12" x="99.4016" y="96">movie.mp4.pointer.arius</tspan><tspan fill="#000000" font-weight="400" font-size="12" x="297.802" y="96">01/10/2021</tspan></text><path d="M732 105.513 831.439 105.513 831.439 129.513 732 129.513Z" fill="#4472C4" fill-rule="evenodd"/><path d="M831.439 105.513 930.877 105.513 930.877 129.513 831.439 129.513Z" fill="#4472C4" fill-rule="evenodd"/><path d="M930.877 105.513 1030.32 105.513 1030.32 129.513 930.877 129.513Z" fill="#4472C4" fill-rule="evenodd"/><path d="M1030.32 105.513 1129.76 105.513 1129.76 129.513 1030.32 129.513Z" fill="#4472C4" fill-rule="evenodd"/><path d="M732 129.513 831.439 129.513 831.439 153.513 732 153.513Z" fill="#CFD5EA" fill-rule="evenodd"/><path d="M831.439 129.513 930.877 129.513 930.877 153.513 831.439 153.513Z" fill="#CFD5EA" fill-rule="evenodd"/><path d="M930.877 129.513 1030.32 129.513 1030.32 153.513 930.877 153.513Z" fill="#CFD5EA" fill-rule="evenodd"/><path d="M1030.32 129.513 1129.76 129.513 1129.76 153.513 1030.32 153.513Z" fill="#CFD5EA" fill-rule="evenodd"/><path d="M732 153.513 831.439 153.513 831.439 177.513 732 177.513Z" fill="#E9EBF5" fill-rule="evenodd"/><path d="M831.439 153.513 930.877 153.513 930.877 177.513 831.439 177.513Z" fill="#E9EBF5" fill-rule="evenodd"/><path d="M930.877 153.513 1030.32 153.513 1030.32 177.513 930.877 177.513Z" fill="#E9EBF5" fill-rule="evenodd"/><path d="M1030.32 153.513 1129.76 153.513 1129.76 177.513 1030.32 177.513Z" fill="#E9EBF5" fill-rule="evenodd"/><path d="M732 177.513 831.439 177.513 831.439 201.513 732 201.513Z" fill="#CFD5EA" fill-rule="evenodd"/><path d="M831.439 177.513 930.877 177.513 930.877 201.513 831.439 201.513Z" fill="#CFD5EA" fill-rule="evenodd"/><path d="M930.877 177.513 1030.32 177.513 1030.32 201.513 930.877 201.513Z" fill="#CFD5EA" fill-rule="evenodd"/><path d="M1030.32 177.513 1129.76 177.513 1129.76 201.513 1030.32 201.513Z" fill="#CFD5EA" fill-rule="evenodd"/><path d="M831.439 104.846 831.439 202.179" stroke="#FFFFFF" stroke-width="1.33333" stroke-linejoin="round" stroke-miterlimit="10" fill="none" fill-rule="evenodd"/><path d="M930.877 104.846 930.877 202.179" stroke="#FFFFFF" stroke-width="1.33333" stroke-linejoin="round" stroke-miterlimit="10" fill="none" fill-rule="evenodd"/><path d="M1030.32 104.846 1030.32 202.179" stroke="#FFFFFF" stroke-width="1.33333" stroke-linejoin="round" stroke-miterlimit="10" fill="none" fill-rule="evenodd"/><path d="M731.333 129.513 1130.42 129.513" stroke="#FFFFFF" stroke-width="4" stroke-linejoin="round" stroke-miterlimit="10" fill="none" fill-rule="evenodd"/><path d="M731.333 153.513 1130.42 153.513" stroke="#FFFFFF" stroke-width="1.33333" stroke-linejoin="round" stroke-miterlimit="10" fill="none" fill-rule="evenodd"/><path d="M731.333 177.513 1130.42 177.513" stroke="#FFFFFF" stroke-width="1.33333" stroke-linejoin="round" stroke-miterlimit="10" fill="none" fill-rule="evenodd"/><path d="M732 104.846 732 202.179" stroke="#FFFFFF" stroke-width="1.33333" stroke-linejoin="round" stroke-miterlimit="10" fill="none" fill-rule="evenodd"/><path d="M1129.76 104.846 1129.76 202.179" stroke="#FFFFFF" stroke-width="1.33333" stroke-linejoin="round" stroke-miterlimit="10" fill="none" fill-rule="evenodd"/><path d="M731.333 105.513 1130.42 105.513" stroke="#FFFFFF" stroke-width="1.33333" stroke-linejoin="round" stroke-miterlimit="10" fill="none" fill-rule="evenodd"/><path d="M731.333 201.513 1130.42 201.513" stroke="#FFFFFF" stroke-width="1.33333" stroke-linejoin="round" stroke-miterlimit="10" fill="none" fill-rule="evenodd"/><text fill="#FFFFFF" font-family="Calibri,Calibri_MSFontService,sans-serif" font-weight="700" font-size="12" transform="translate(741.6 121)">BinaryHash<tspan font-size="12" x="99.4389" y="0">OriginalLength</tspan><tspan font-size="12" x="198.878" y="0">ArchivedLength</tspan><tspan font-size="12" x="298.317" y="0">ChunkCount</tspan><tspan fill="#000000" font-weight="400" font-size="12" x="0" y="24">binaryhash1</tspan><tspan fill="#000000" font-weight="400" font-size="12" x="99.4389" y="24">20 KB</tspan><tspan fill="#000000" font-weight="400" font-size="12" x="198.878" y="24">15 KB</tspan><tspan fill="#000000" font-weight="400" font-size="12" x="298.317" y="24">3</tspan><tspan fill="#000000" font-weight="400" font-size="12" x="0" y="48">binaryhash2</tspan><tspan fill="#000000" font-weight="400" font-size="12" x="99.4389" y="48">24 KB</tspan><tspan fill="#000000" font-weight="400" font-size="12" x="198.878" y="48">17 KB</tspan><tspan fill="#000000" font-weight="400" font-size="12" x="298.317" y="48">3</tspan><tspan fill="#000000" font-weight="400" font-size="12" x="0" y="72">binaryhash3</tspan><tspan fill="#000000" font-weight="400" font-size="12" x="99.4389" y="72">5 MB</tspan><tspan fill="#000000" font-weight="400" font-size="12" x="198.878" y="72">5 MB</tspan><tspan fill="#000000" font-weight="400" font-size="12" x="298.317" y="72">1</tspan></text><rect x="630.5" y="514.5" width="567" height="193" stroke="#000000" stroke-width="1.33333" stroke-miterlimit="8" stroke-dasharray="1.33333 1.33333" fill="none"/><text font-family="Segoe UI,Segoe UI_MSFontService,sans-serif" font-weight="400" font-size="19" transform="translate(842.493 537)">Pointer<tspan font-size="19" x="58.3267" y="0">FileEntries</tspan><tspan font-size="13" x="30.08" y="17">Table Storage</tspan></text><rect x="68.5001" y="99.5001" width="113" height="26" stroke="#2F528F" stroke-width="1.33333" stroke-miterlimit="8" fill="#DAE3F3"/><rect x="68.5001" y="123.5" width="113" height="52" stroke="#2F528F" stroke-width="1.33333" stroke-miterlimit="8" fill="#DAE3F3"/><rect x="68.5001" y="175.5" width="113" height="37" stroke="#2F528F" stroke-width="1.33333" stroke-miterlimit="8" fill="#DAE3F3"/><text font-family="Segoe UI,Segoe UI_MSFontService,sans-serif" font-weight="400" font-size="16" transform="translate(57.245 85)">report<tspan font-size="16" x="48.08" y="0">v1.doc</tspan></text><path d="M125.5 199.5 181.5 199.5 181.5 210.333 179.333 212.5 125.5 212.5Z" fill="#FFFFFF" fill-rule="evenodd"/><path d="M179.333 212.5 179.767 210.767 181.5 210.333Z" fill="#CDCDCD" fill-rule="evenodd"/><path d="M179.333 212.5 179.767 210.767 181.5 210.333 179.333 212.5 125.5 212.5 125.5 199.5 181.5 199.5 181.5 210.333" stroke="#000000" stroke-width="1.33333" stroke-miterlimit="8" fill="none" fill-rule="evenodd"/><text font-family="Segoe UI Semilight,Segoe UI Semilight_MSFontService,sans-serif" font-weight="300" font-size="9" transform="translate(129.354 208)">chunkhash3</text><path d="M125.5 162.5 181.5 162.5 181.5 173.333 179.333 175.5 125.5 175.5Z" fill="#FFFFFF" fill-rule="evenodd"/><path d="M179.333 175.5 179.767 173.767 181.5 173.333Z" fill="#CDCDCD" fill-rule="evenodd"/><path d="M179.333 175.5 179.767 173.767 181.5 173.333 179.333 175.5 125.5 175.5 125.5 162.5 181.5 162.5 181.5 173.333" stroke="#000000" stroke-width="1.33333" stroke-miterlimit="8" fill="none" fill-rule="evenodd"/><text font-family="Segoe UI Semilight,Segoe UI Semilight_MSFontService,sans-serif" font-weight="300" font-size="9" transform="translate(129.354 170)">chunkhash2</text><path d="M125.5 110.5 181.5 110.5 181.5 121.333 179.333 123.5 125.5 123.5Z" fill="#FFFFFF" fill-rule="evenodd"/><path d="M179.333 123.5 179.767 121.767 181.5 121.333Z" fill="#CDCDCD" fill-rule="evenodd"/><path d="M179.333 123.5 179.767 121.767 181.5 121.333 179.333 123.5 125.5 123.5 125.5 110.5 181.5 110.5 181.5 121.333" stroke="#000000" stroke-width="1.33333" stroke-miterlimit="8" fill="none" fill-rule="evenodd"/><text font-family="Segoe UI Semilight,Segoe UI Semilight_MSFontService,sans-serif" font-weight="300" font-size="9" transform="translate(129.617 119)">chunkhash1</text><rect x="358.5" y="89.5001" width="114" height="113" stroke="#2F528F" stroke-width="1.33333" stroke-miterlimit="8" fill="none"/><text font-family="Segoe UI Semilight,Segoe UI Semilight_MSFontService,sans-serif" font-weight="300" font-size="9" transform="translate(391.529 149)">binaryhash1<tspan font-family="Segoe UI,Segoe UI_MSFontService,sans-serif" font-weight="400" font-size="16" x="-33.1096" y="-62">report v1.doc.pointer.arius</tspan></text><rect x="58.5001" y="89.5001" width="113" height="113" stroke="#2F528F" stroke-width="1.33333" stroke-miterlimit="8" fill="#4472C4" fill-opacity="0.74902"/><path d="M115.5 190.5 171.5 190.5 171.5 200.5 169.5 202.5 115.5 202.5Z" fill="#FFFFFF" fill-rule="evenodd"/><path d="M169.5 202.5 169.9 200.9 171.5 200.5Z" fill="#CDCDCD" fill-rule="evenodd"/><path d="M169.5 202.5 169.9 200.9 171.5 200.5 169.5 202.5 115.5 202.5 115.5 190.5 171.5 190.5 171.5 200.5" stroke="#000000" stroke-width="1.33333" stroke-miterlimit="8" fill="none" fill-rule="evenodd"/><text font-family="Segoe UI Semilight,Segoe UI Semilight_MSFontService,sans-serif" font-weight="300" font-size="9" transform="translate(119.395 198)">binaryhash1<tspan font-family="Segoe UI,Segoe UI_MSFontService,sans-serif" font-weight="400" font-size="16" x="239.7" y="39">report v1 (copy).doc.pointer.arius</tspan><tspan font-family="Segoe UI,Segoe UI_MSFontService,sans-serif" font-weight="400" font-size="16" x="-62.1502" y="40">r</tspan><tspan font-family="Segoe UI,Segoe UI_MSFontService,sans-serif" font-weight="400" font-size="16" x="-56.8636" y="40">eport</tspan><tspan font-family="Segoe UI,Segoe UI_MSFontService,sans-serif" font-weight="400" font-size="16" x="-14.0702" y="40">v1 (</tspan><tspan font-family="Calibri,Calibri_MSFontService,sans-serif" font-weight="400" font-size="16" x="11.4298" y="40">copy</tspan><tspan font-family="Segoe UI,Segoe UI_MSFontService,sans-serif" font-weight="400" font-size="16" x="42.0498" y="40">).doc</tspan></text><rect x="358.5" y="241.5" width="114" height="114" stroke="#2F528F" stroke-width="1.33333" stroke-miterlimit="8" fill="none"/><text font-family="Segoe UI Semilight,Segoe UI Semilight_MSFontService,sans-serif" font-weight="300" font-size="11" transform="translate(388.279 302)">binaryhash1</text><rect x="58.5001" y="241.5" width="114" height="114" stroke="#2F528F" stroke-width="1.33333" stroke-miterlimit="8" fill="#4472C4" fill-opacity="0.74902"/><path d="M115.5 342.5 171.5 342.5 171.5 353.333 169.333 355.5 115.5 355.5Z" fill="#FFFFFF" fill-rule="evenodd"/><path d="M169.333 355.5 169.767 353.767 171.5 353.333Z" fill="#CDCDCD" fill-rule="evenodd"/><path d="M169.333 355.5 169.767 353.767 171.5 353.333 169.333 355.5 115.5 355.5 115.5 342.5 171.5 342.5 171.5 353.333" stroke="#000000" stroke-width="1.33333" stroke-miterlimit="8" fill="none" fill-rule="evenodd"/><text font-family="Segoe UI Semilight,Segoe UI Semilight_MSFontService,sans-serif" font-weight="300" font-size="9" transform="translate(119.395 351)">binaryhash1</text><rect x="74.5001" y="584.5" width="113" height="26" stroke="#2F528F" stroke-width="1.33333" stroke-miterlimit="8" fill="#DAE3F3"/><rect x="74.5001" y="608.5" width="113" height="51" stroke="#2F528F" stroke-width="1.33333" stroke-miterlimit="8" fill="#DAE3F3"/><rect x="74.5001" y="659.5" width="113" height="38" stroke="#2F528F" stroke-width="1.33333" stroke-miterlimit="8" fill="#DAE3F3"/><text font-family="Segoe UI,Segoe UI_MSFontService,sans-serif" font-weight="400" font-size="16" transform="translate(64.4659 570)">report<tspan font-size="16" x="48.08" y="0">v2.doc</tspan></text><path d="M131.5 684.5 187.5 684.5 187.5 695.333 185.333 697.5 131.5 697.5Z" fill="#FFFFFF" fill-rule="evenodd"/><path d="M185.333 697.5 185.767 695.767 187.5 695.333Z" fill="#CDCDCD" fill-rule="evenodd"/><path d="M185.333 697.5 185.767 695.767 187.5 695.333 185.333 697.5 131.5 697.5 131.5 684.5 187.5 684.5 187.5 695.333" stroke="#000000" stroke-width="1.33333" stroke-miterlimit="8" fill="none" fill-rule="evenodd"/><text font-family="Segoe UI Semilight,Segoe UI Semilight_MSFontService,sans-serif" font-weight="300" font-size="9" transform="translate(135.128 693)">chunkhash4</text><path d="M131.5 646.5 187.5 646.5 187.5 657.333 185.333 659.5 131.5 659.5Z" fill="#FFFFFF" fill-rule="evenodd"/><path d="M185.333 659.5 185.767 657.767 187.5 657.333Z" fill="#CDCDCD" fill-rule="evenodd"/><path d="M185.333 659.5 185.767 657.767 187.5 657.333 185.333 659.5 131.5 659.5 131.5 646.5 187.5 646.5 187.5 657.333" stroke="#000000" stroke-width="1.33333" stroke-miterlimit="8" fill="none" fill-rule="evenodd"/><text font-family="Segoe UI Semilight,Segoe UI Semilight_MSFontService,sans-serif" font-weight="300" font-size="9" transform="translate(135.212 655)">chunkhash2</text><path d="M131.5 594.5 187.5 594.5 187.5 605.333 185.333 607.5 131.5 607.5Z" fill="#FFFFFF" fill-rule="evenodd"/><path d="M185.333 607.5 185.767 605.767 187.5 605.333Z" fill="#CDCDCD" fill-rule="evenodd"/><path d="M185.333 607.5 185.767 605.767 187.5 605.333 185.333 607.5 131.5 607.5 131.5 594.5 187.5 594.5 187.5 605.333" stroke="#000000" stroke-width="1.33333" stroke-miterlimit="8" fill="none" fill-rule="evenodd"/><text font-family="Segoe UI Semilight,Segoe UI Semilight_MSFontService,sans-serif" font-weight="300" font-size="9" transform="translate(135.376 603)">chunkhash1</text><rect x="365.5" y="574.5" width="113" height="113" stroke="#2F528F" stroke-width="1.33333" stroke-miterlimit="8" fill="none"/><text font-family="Segoe UI Semilight,Segoe UI Semilight_MSFontService,sans-serif" font-weight="300" font-size="11" transform="translate(393.595 634)">binaryhash2<tspan font-family="Segoe UI,Segoe UI_MSFontService,sans-serif" font-weight="400" font-size="16" x="-29.0263" y="-63">report v2.doc.pointer.arius</tspan></text><rect x="64.5001" y="574.5" width="113" height="113" stroke="#2F528F" stroke-width="1.33333" stroke-miterlimit="8" fill="#4472C4" fill-opacity="0.74902"/><path d="M121.5 674.5 177.5 674.5 177.5 685.333 175.333 687.5 121.5 687.5Z" fill="#FFFFFF" fill-rule="evenodd"/><path d="M175.333 687.5 175.767 685.767 177.5 685.333Z" fill="#CDCDCD" fill-rule="evenodd"/><path d="M175.333 687.5 175.767 685.767 177.5 685.333 175.333 687.5 121.5 687.5 121.5 674.5 177.5 674.5 177.5 685.333" stroke="#000000" stroke-width="1.33333" stroke-miterlimit="8" fill="none" fill-rule="evenodd"/><text font-family="Segoe UI Semilight,Segoe UI Semilight_MSFontService,sans-serif" font-weight="300" font-size="9" transform="translate(124.795 683)">binaryhash2<tspan font-family="Segoe UI,Segoe UI_MSFontService,sans-serif" font-weight="400" font-size="16" x="-67.2439" y="-301">movie.mp4</tspan></text><rect x="67.5001" y="397.5" width="114" height="151" stroke="#2F528F" stroke-width="1.33333" stroke-miterlimit="8" fill="#DAE3F3"/><path d="M125.5 535.5 181.5 535.5 181.5 546.333 179.333 548.5 125.5 548.5Z" fill="#FFFFFF" fill-rule="evenodd"/><path d="M179.333 548.5 179.767 546.767 181.5 546.333Z" fill="#CDCDCD" fill-rule="evenodd"/><path d="M179.333 548.5 179.767 546.767 181.5 546.333 179.333 548.5 125.5 548.5 125.5 535.5 181.5 535.5 181.5 546.333" stroke="#000000" stroke-width="1.33333" stroke-miterlimit="8" fill="none" fill-rule="evenodd"/><text font-family="Segoe UI Semilight,Segoe UI Semilight_MSFontService,sans-serif" font-weight="300" font-size="9" transform="translate(128.856 544)">chunkhash5</text><rect x="358.5" y="386.5" width="114" height="151" stroke="#2F528F" stroke-width="1.33333" stroke-miterlimit="8" fill="none"/><text font-family="Segoe UI Semilight,Segoe UI Semilight_MSFontService,sans-serif" font-weight="300" font-size="11" transform="translate(387.434 465)">binaryhash3<tspan font-family="Segoe UI,Segoe UI_MSFontService,sans-serif" font-weight="400" font-size="16" x="-28.3499" y="-82">movie.mp4.pointer.arius</tspan></text><rect x="58.5001" y="386.5" width="113" height="151" stroke="#2F528F" stroke-width="1.33333" stroke-miterlimit="8" fill="#4472C4" fill-opacity="0.74902"/><path d="M115.5 524.5 171.5 524.5 171.5 535.333 169.333 537.5 115.5 537.5Z" fill="#FFFFFF" fill-rule="evenodd"/><path d="M169.333 537.5 169.767 535.767 171.5 535.333Z" fill="#CDCDCD" fill-rule="evenodd"/><path d="M169.333 537.5 169.767 535.767 171.5 535.333 169.333 537.5 115.5 537.5 115.5 524.5 171.5 524.5 171.5 535.333" stroke="#000000" stroke-width="1.33333" stroke-miterlimit="8" fill="none" fill-rule="evenodd"/><text font-family="Segoe UI Semilight,Segoe UI Semilight_MSFontService,sans-serif" font-weight="300" font-size="9" transform="translate(118.634 533)">binaryhash3</text><path d="M200.5 119.5 313.5 119.5 313.5 102.5 347.5 136.5 313.5 170.5 313.5 153.5 200.5 153.5Z" stroke="#000000" stroke-width="0.333333" stroke-miterlimit="8" fill="#FFFFFF" fill-rule="evenodd"/><text font-family="Consolas,Consolas_MSFontService,sans-serif" font-weight="400" font-size="12" transform="translate(221.587 140)">arius<tspan font-size="12" x="40" y="0">archive</tspan></text><rect x="32.5001" y="14.5001" width="567" height="693" stroke="#000000" stroke-width="1.33333" stroke-miterlimit="8" fill="none"/><text font-family="Segoe UI,Segoe UI_MSFontService,sans-serif" font-weight="400" font-size="24" transform="translate(226.648 42)">Local File System</text><path d="M200.5 267.25 314 267.25 314 250.5 347.5 284 314 317.5 314 300.75 200.5 300.75Z" stroke="#000000" stroke-width="0.333333" stroke-miterlimit="8" fill="#FFFFFF" fill-rule="evenodd"/><text font-family="Consolas,Consolas_MSFontService,sans-serif" font-weight="400" font-size="12" transform="translate(221.587 287)">arius<tspan font-size="12" x="40" y="0">archive</tspan></text><path d="M206.5 604.5 319.5 604.5 319.5 587.5 353.5 621.5 319.5 655.5 319.5 638.5 206.5 638.5Z" stroke="#000000" stroke-width="0.333333" stroke-miterlimit="8" fill="#FFFFFF" fill-rule="evenodd"/><text font-family="Consolas,Consolas_MSFontService,sans-serif" font-weight="400" font-size="12" transform="translate(227.737 625)">arius<tspan font-size="12" x="40" y="0">archive</tspan></text><path d="M199.5 435.5 313.5 435.5 313.5 418.5 347.5 452.5 313.5 486.5 313.5 469.5 199.5 469.5Z" stroke="#000000" stroke-width="0.333333" stroke-miterlimit="8" fill="#FFFFFF" fill-rule="evenodd"/><text font-family="Consolas,Consolas_MSFontService,sans-serif" font-weight="400" font-size="12" transform="translate(221.576 456)">arius<tspan font-size="12" x="40" y="0">archive</tspan></text><rect x="0" y="0" width="567" height="42" stroke="#000000" stroke-width="1.33333" stroke-miterlimit="8" stroke-dasharray="1.33333 1.33333" fill="none" transform="matrix(1 0 0 -1 32.5001 56.5001)"/><path d="M34 79.5C34 73.701 38.701 69 44.5 69 50.299 69 55 73.701 55 79.5 55 85.299 50.299 90 44.5 90 38.701 90 34 85.299 34 79.5Z" fill="#FF0000" fill-rule="evenodd"/><text fill="#FFFFFF" font-family="Calibri,Calibri_MSFontService,sans-serif" font-weight="400" font-size="12" transform="translate(41.5236 83)">1</text><path d="M183 93.5C183 87.701 187.701 83 193.5 83 199.299 83 204 87.701 204 93.5 204 99.299 199.299 104 193.5 104 187.701 104 183 99.299 183 93.5Z" fill="#FF0000" fill-rule="evenodd"/><text fill="#FFFFFF" font-family="Calibri,Calibri_MSFontService,sans-serif" font-weight="400" font-size="12" transform="translate(190.113 97)">2</text><path d="M708 142.5C708 136.701 712.701 132 718.5 132 724.299 132 729 136.701 729 142.5 729 148.299 724.299 153 718.5 153 712.701 153 708 148.299 708 142.5Z" fill="#FF0000" fill-rule="evenodd"/><text fill="#FFFFFF" font-family="Calibri,Calibri_MSFontService,sans-serif" font-weight="400" font-size="12" transform="translate(715.96 146)">5</text><path d="M705 602.5C705 596.701 709.701 592 715.5 592 721.299 592 726 596.701 726 602.5 726 608.299 721.299 613 715.5 613 709.701 613 705 608.299 705 602.5Z" fill="#FF0000" fill-rule="evenodd"/><text fill="#FFFFFF" font-family="Calibri,Calibri_MSFontService,sans-serif" font-weight="400" font-size="12" transform="translate(712.185 606)">7</text><path d="M34 233.5C34 227.701 38.701 223 44.5 223 50.299 223 55 227.701 55 233.5 55 239.299 50.299 244 44.5 244 38.701 244 34 239.299 34 233.5Z" fill="#FF0000" fill-rule="evenodd"/><text fill="#FFFFFF" font-family="Calibri,Calibri_MSFontService,sans-serif" font-weight="400" font-size="12" transform="translate(41.3269 238)">8</text><path d="M705 628.5C705 622.701 709.701 618 715.5 618 721.299 618 726 622.701 726 628.5 726 634.299 721.299 639 715.5 639 709.701 639 705 634.299 705 628.5Z" fill="#FF0000" fill-rule="evenodd"/><text fill="#FFFFFF" font-family="Calibri,Calibri_MSFontService,sans-serif" font-weight="400" font-size="12" transform="translate(709.115 632)">10</text><path d="M39 567.5C39 561.701 43.701 557 49.5 557 55.299 557 60 561.701 60 567.5 60 573.299 55.299 578 49.5 578 43.701 578 39 573.299 39 567.5Z" fill="#FF0000" fill-rule="evenodd"/><text fill="#FFFFFF" font-family="Calibri,Calibri_MSFontService,sans-serif" font-weight="400" font-size="12" transform="translate(43.9294 572)">11</text><path d="M708 166.5C708 160.701 712.701 156 718.5 156 724.299 156 729 160.701 729 166.5 729 172.299 724.299 177 718.5 177 712.701 177 708 172.299 708 166.5Z" fill="#FF0000" fill-rule="evenodd"/><text fill="#FFFFFF" font-family="Calibri,Calibri_MSFontService,sans-serif" font-weight="400" font-size="12" transform="translate(712.96 171)">12</text><path d="M331 80.5C331 74.701 335.701 70 341.5 70 347.299 70 352 74.701 352 80.5 352 86.299 347.299 91 341.5 91 335.701 91 331 86.299 331 80.5Z" fill="#FF0000" fill-rule="evenodd"/><text fill="#FFFFFF" font-family="Calibri,Calibri_MSFontService,sans-serif" font-weight="400" font-size="12" transform="translate(338.702 85)">6</text><rect x="630.5" y="216.5" width="283" height="298" stroke="#000000" stroke-width="1.33333" stroke-miterlimit="8" stroke-dasharray="1.33333 1.33333" fill="none"/><text font-family="Segoe UI,Segoe UI_MSFontService,sans-serif" font-weight="400" font-size="19" transform="translate(706.131 239)">Binary<tspan font-size="19" x="51.4133" y="0">Manifests</tspan><tspan font-size="13" x="-10.54" y="17">Blob</tspan><tspan font-size="13" x="19.6266" y="17">Container (Cool Tier)</tspan></text><rect x="913.5" y="216.5" width="284" height="298" stroke="#000000" stroke-width="1.33333" stroke-miterlimit="8" stroke-dasharray="1.33333 1.33333" fill="none"/><text font-family="Segoe UI,Segoe UI_MSFontService,sans-serif" font-weight="400" font-size="19" transform="translate(982.135 239)">Chunks<tspan font-size="19" x="65.5" y="0">Container</tspan><tspan font-size="13" x="-11.2466" y="17">Blob</tspan><tspan font-size="13" x="18.92" y="17">Container (</tspan><tspan font-size="13" x="83.92" y="17">Archive</tspan><tspan font-size="13" x="131.087" y="17">Tier)</tspan></text><path d="M843.516 309.167 852.968 309.605 862.186 310.859 870.777 312.866 878.498 315.377 885.033 318.456 887.747 320.097 890.09 321.807 892 323.653 893.414 325.516 894.259 327.403 894.579 329.32 894.891 331.195 894.867 331.114 895.679 332.926 895.641 332.861 897.016 334.674 896.982 334.635 898.857 336.448 898.822 336.418 901.134 338.106 901.11 338.09 903.798 339.715 903.765 339.697 910.265 342.697 910.231 342.684 917.856 345.247 917.824 345.237 926.386 347.175 926.357 347.17 935.545 348.42 935.516 348.417 938.293 348.546 938.263 349.212 935.47 349.082 926.253 347.828 917.66 345.884 910.002 343.31 903.469 340.295 900.753 338.653 898.41 336.943 896.5 335.097 895.086 333.234 894.241 331.347 893.921 329.43 893.609 327.555 893.633 327.636 892.821 325.824 892.859 325.889 891.484 324.077 891.518 324.115 889.643 322.302 889.679 322.332 887.366 320.644 887.39 320.66 884.703 319.035 884.733 319.052 878.233 315.989 878.272 316.005 870.584 313.505 870.612 313.512 862.049 311.512 862.08 311.518 852.893 310.268 852.922 310.271 843.485 309.833ZM937.131 344.821 944.938 349.188 936.761 352.813Z" fill="#4472C4"/><path d="M0.00441462-0.333304 9.44537-0.208258 18.6392 0.104456 27.2095 0.542357 34.9076 1.16822 41.4171 1.91932 44.1165 2.29598 46.4439 2.73629 48.3385 3.17837 49.7557 3.62928 50.6637 4.11823 51.0212 4.61875 51.3337 5.05625 51.2205 4.95651 52.033 5.39401 51.9761 5.36986 53.3511 5.80736 53.3257 5.80039 55.2007 6.23789 55.1784 6.23346 57.4909 6.60846 60.1786 7.046 60.1601 7.04352 66.6601 7.73102 66.6522 7.73028 74.2772 8.35528 74.267 8.3546 82.8295 8.7921 82.8238 8.79186 92.0113 9.10436 92.0044 9.1042 94.7758 9.1409 94.767 9.80751 91.9921 9.77076 82.7983 9.45804 74.2279 9.02014 66.5938 8.3944 60.0807 7.7055 57.3841 7.26654 55.0604 6.88971 53.1615 6.44663 51.7443 5.99572 50.8363 5.50677 50.4788 5.00625 50.1663 4.56875 50.2795 4.66849 49.467 4.23099 49.5239 4.25514 48.1489 3.81764 48.1743 3.82461 46.2993 3.38711 46.313 3.39002 44.0005 2.95252 44.0164 2.95513 41.3289 2.58013 41.3368 2.58114 34.8368 1.83114 34.848 1.83224 27.1605 1.20724 27.1705 1.2079 18.608 0.770399 18.6137 0.770641 9.42617 0.458141 9.43309 0.458304-0.00441462 0.333304ZM93.4912 5.4569 101.438 9.5625 93.3852 13.4562Z" fill="#4472C4" transform="matrix(1 0 0 -1 843.5 309.027)"/><path d="M843.721 309.25 940.164 394.563 939.722 395.062 843.279 309.75ZM941.595 390.933 944.936 399.23 936.294 396.925Z" fill="#4472C4"/><path d="M0.00305797-0.333319 20.4442-0.145786 40.7004 0.479407 60.7065 1.41719 80.1506 2.73013 98.9691 4.35565 117.038 6.2313 134.108 8.35722 150.054 10.7335 164.75 13.36 171.568 14.7361 178.011 16.1124 184.019 17.5518 189.652 19.0538 194.849 20.5566 199.548 22.1229 203.812 23.6908 207.514 25.3222 210.784 26.894 213.505 28.5395 215.601 30.2546 217.206 31.9232 218.192 33.633 218.52 35.4007 218.771 42.0499 218.769 42.03 219.394 48.405 219.391 48.3827 220.391 54.3827 220.386 54.3584 221.699 59.7334 221.691 59.7071 223.191 64.2071 223.143 64.1141 224.249 65.6084 223.714 66.0051 222.576 64.4682 221.054 59.9049 219.736 54.5045 218.732 48.4812 218.105 42.0851 217.854 35.4501 217.86 35.4982 217.547 33.8107 217.586 33.9166 216.649 32.2916 216.697 32.356 215.135 30.731 215.164 30.758 213.101 29.0705 213.14 29.0977 210.453 27.4727 210.481 27.4879 207.231 25.9254 207.241 25.93 203.553 24.305 203.572 24.3129 199.322 22.7504 199.332 22.7537 194.645 21.1912 194.657 21.1952 189.47 19.6952 189.477 19.6971 183.852 18.1971 183.86 18.1992 177.86 16.7617 177.868 16.7635 171.43 15.3885 171.434 15.3892 164.622 14.0142 164.629 14.0156 149.941 11.3906 149.951 11.3922 134.013 9.01719 134.021 9.01828 116.959 6.89328 116.966 6.89405 98.9031 5.01905 98.9088 5.0196 80.0963 3.3946 80.1025 3.39508 60.665 2.08258 60.6719 2.08297 40.6719 1.14547 40.6772 1.14567 20.4272 0.520675 20.4344 0.520819-0.00305797 0.333319ZM226.156 62.1945 228.312 70.875 220.074 67.3917Z" fill="#4472C4" transform="matrix(1 0 0 -1 843.5 452.346)"/><rect x="945" y="373" width="113" height="51" fill="#DAE3F3"/><text font-family="Segoe UI Semilight,Segoe UI Semilight_MSFontService,sans-serif" font-weight="300" font-size="9" transform="translate(944.639 371)">chunkhash2.gz.aes</text><rect x="945" y="280" width="113" height="38" fill="#DAE3F3"/><text font-family="Segoe UI Semilight,Segoe UI Semilight_MSFontService,sans-serif" font-weight="300" font-size="9" transform="translate(944.639 278)">chunkhash3.gz.aes</text><rect x="945" y="445" width="113" height="38" fill="#DAE3F3"/><text font-family="Segoe UI Semilight,Segoe UI Semilight_MSFontService,sans-serif" font-weight="300" font-size="9" transform="translate(944.639 443)">chunkhash4.gz.aes</text><rect x="1072" y="305" width="113" height="151" fill="#DAE3F3"/><text font-family="Segoe UI Semilight,Segoe UI Semilight_MSFontService,sans-serif" font-weight="300" font-size="9" transform="translate(1071.68 303)">chunkhash5.gz.aes</text><rect x="945" y="335" width="113" height="27" fill="#DAE3F3"/><text font-family="Segoe UI Semilight,Segoe UI Semilight_MSFontService,sans-serif" font-weight="300" font-size="9" transform="translate(944.639 333)">chunkhash1.gz.aes</text><rect x="700" y="284" width="143" height="49" fill="#8FAADC"/><text fill="#FFFFFF" font-family="Segoe UI Semilight,Segoe UI Semilight_MSFontService,sans-serif" font-weight="300" font-size="12" transform="translate(741.783 299)">chunkhash1<tspan font-size="12" x="-0.91333" y="14">chunkhash2</tspan><tspan font-size="12" x="-0.91333" y="28">chunkhash3</tspan><tspan fill="#000000" font-size="9" x="-41.9703" y="-17">binaryhash1</tspan></text><rect x="700" y="427" width="143" height="49" fill="#8FAADC"/><text fill="#FFFFFF" font-family="Segoe UI Semilight,Segoe UI Semilight_MSFontService,sans-serif" font-weight="300" font-size="12" transform="translate(741.028 456)">chunkhash5<tspan fill="#000000" font-size="9" x="-41.3754" y="-31">binaryhash3</tspan></text><rect x="700" y="356" width="143" height="49" fill="#8FAADC"/><text fill="#FFFFFF" font-family="Segoe UI Semilight,Segoe UI Semilight_MSFontService,sans-serif" font-weight="300" font-size="12" transform="translate(741.587 371)">chunkhash1<tspan font-size="12" x="-0.91333" y="14">chunkhash2</tspan><tspan font-size="12" x="-1.08002" y="28">chunkhash4</tspan><tspan fill="#000000" font-size="9" x="-41.58" y="-18">binaryhash2</tspan></text><path d="M0.0131477-0.333074 9.52464 0.0423796 18.7355 1.04492 27.3217 2.61174 35.1004 4.61917 41.632 7.06848 44.3461 8.39399 46.6842 9.7842 48.5986 11.1881 50.0215 12.7403 50.8782 14.2562 51.2013 15.807 51.5138 17.307 51.4777 17.211 52.2902 18.6485 52.2457 18.5873 53.6207 20.0873 53.5721 20.0437 55.4471 21.4187 55.4204 21.401 57.7329 22.776 57.7088 22.763 60.3963 24.0755 60.367 24.0629 66.867 26.5004 66.8339 26.4899 74.5214 28.4899 74.4973 28.4846 83.0598 30.0471 83.0361 30.0436 92.2236 31.0436 92.2006 31.0419 95.0392 31.154 95.0129 31.8201 92.1629 31.7076 82.952 30.7051 74.3655 29.1382 66.6492 27.1307 60.118 24.6815 57.4039 23.356 55.0658 21.9658 53.1514 20.5619 51.7285 19.0097 50.8718 17.4938 50.5487 15.943 50.2362 14.443 50.2723 14.539 49.4598 13.1015 49.5043 13.1627 48.1293 11.6627 48.1779 11.7063 46.3029 10.3313 46.3296 10.349 44.0171 8.97401 44.0412 8.98702 41.3537 7.67452 41.383 7.68711 34.883 5.24961 34.9167 5.26026 27.1667 3.26026 27.1902 3.26542 18.6277 1.70292 18.6514 1.70638 9.46393 0.706376 9.48685 0.708074-0.0131477 0.333074ZM93.8515 27.4376 101.688 31.75 93.5359 35.4313Z" fill="#4472C4" transform="matrix(1 0 0 -1 843.5 380.19)"/><path d="M843.518 380.167 848.283 380.418 853.063 381.11 857.719 382.242 862.314 383.816 870.918 387.961 878.713 393.304 885.249 399.715 887.96 403.182 890.29 406.835 892.182 410.619 893.572 414.471 894.393 418.39 894.707 422.349 895.02 426.286 895.014 426.244 895.826 430.119 895.814 430.074 897.189 433.887 897.173 433.851 899.048 437.601 899.031 437.571 901.344 441.196 901.325 441.17 904.013 444.607 903.983 444.575 910.483 450.95 910.44 450.913 918.127 456.226 918.082 456.2 926.645 460.325 926.608 460.31 931.171 461.872 931.141 461.864 935.766 462.989 935.727 462.982 938.587 463.323 938.508 463.985 935.628 463.641 930.969 462.508 926.373 460.934 917.769 456.789 910.037 451.446 903.501 445.035 900.79 441.568 898.46 437.915 896.568 434.132 895.179 430.279 894.357 426.36 894.043 422.401 893.73 418.464 893.736 418.506 892.924 414.631 892.937 414.676 891.562 410.863 891.577 410.899 889.702 407.149 889.719 407.179 887.407 403.554 887.425 403.58 884.737 400.143 884.767 400.176 878.267 393.801 878.312 393.837 870.562 388.525 870.605 388.55 862.043 384.425 862.08 384.44 857.517 382.878 857.546 382.886 852.921 381.761 852.952 381.767 848.202 381.08 848.233 381.083 843.483 380.833ZM937.578 459.55 945.188 464.25 936.862 467.518Z" fill="#4472C4"/><path d="M843.559 380.172 938.63 397.346 938.512 398.002 843.441 380.828ZM937.97 393.501 945.132 398.859 936.548 401.374Z" fill="#4472C4"/><path d="M672 282.5C672 276.701 676.701 272 682.5 272 688.299 272 693 276.701 693 282.5 693 288.299 688.299 293 682.5 293 676.701 293 672 288.299 672 282.5Z" fill="#FF0000" fill-rule="evenodd"/><text fill="#FFFFFF" font-family="Calibri,Calibri_MSFontService,sans-serif" font-weight="400" font-size="12" transform="translate(679.86 287)">4</text><path d="M920 332.5C920 326.701 924.701 322 930.5 322 936.299 322 941 326.701 941 332.5 941 338.299 936.299 343 930.5 343 924.701 343 920 338.299 920 332.5Z" fill="#FF0000" fill-rule="evenodd"/><text fill="#FFFFFF" font-family="Calibri,Calibri_MSFontService,sans-serif" font-weight="400" font-size="12" transform="translate(927.777 337)">3</text><path d="M920 446.5C920 440.701 924.701 436 930.5 436 936.299 436 941 440.701 941 446.5 941 452.299 936.299 457 930.5 457 924.701 457 920 452.299 920 446.5Z" fill="#FF0000" fill-rule="evenodd"/><text fill="#FFFFFF" font-family="Calibri,Calibri_MSFontService,sans-serif" font-weight="400" font-size="12" transform="translate(924.421 450)">13</text><path d="M920 386.5C920 380.701 924.701 376 930.5 376 936.299 376 941 380.701 941 386.5 941 392.299 936.299 397 930.5 397 924.701 397 920 392.299 920 386.5Z" fill="#FF0000" fill-rule="evenodd"/><text fill="#FFFFFF" font-family="Calibri,Calibri_MSFontService,sans-serif" font-weight="400" font-size="12" transform="translate(927.777 390)">3</text><path d="M921 276.5C921 270.701 925.701 266 931.5 266 937.299 266 942 270.701 942 276.5 942 282.299 937.299 287 931.5 287 925.701 287 921 282.299 921 276.5Z" fill="#FF0000" fill-rule="evenodd"/><text fill="#FFFFFF" font-family="Calibri,Calibri_MSFontService,sans-serif" font-weight="400" font-size="12" transform="translate(928.576 280)">3</text><path d="M334 233.5C334 227.701 338.701 223 344.5 223 350.299 223 355 227.701 355 233.5 355 239.299 350.299 244 344.5 244 338.701 244 334 239.299 334 233.5Z" fill="#FF0000" fill-rule="evenodd"/><text fill="#FFFFFF" font-family="Calibri,Calibri_MSFontService,sans-serif" font-weight="400" font-size="12" transform="translate(341.474 238)">9</text><path d="M189 574.5C189 568.701 193.701 564 199.5 564 205.299 564 210 568.701 210 574.5 210 580.299 205.299 585 199.5 585 193.701 585 189 580.299 189 574.5Z" fill="#FF0000" fill-rule="evenodd"/><text fill="#FFFFFF" font-family="Calibri,Calibri_MSFontService,sans-serif" font-weight="400" font-size="12" transform="translate(193.456 578)">12</text><path d="M671 349.5C671 343.701 675.701 339 681.5 339 687.299 339 692 343.701 692 349.5 692 355.299 687.299 360 681.5 360 675.701 360 671 355.299 671 349.5Z" fill="#FF0000" fill-rule="evenodd"/><text fill="#FFFFFF" font-family="Calibri,Calibri_MSFontService,sans-serif" font-weight="400" font-size="12" transform="translate(675.389 353)">14</text><path d="M340 566.5C340 560.701 344.701 556 350.5 556 356.299 556 361 560.701 361 566.5 361 572.299 356.299 577 350.5 577 344.701 577 340 572.299 340 566.5Z" fill="#FF0000" fill-rule="evenodd"/><text fill="#FFFFFF" font-family="Calibri,Calibri_MSFontService,sans-serif" font-weight="400" font-size="12" transform="translate(344.918 570)">15</text><path d="M705 647.5C705 641.701 709.701 637 715.5 637 721.299 637 726 641.701 726 647.5 726 653.299 721.299 658 715.5 658 709.701 658 705 653.299 705 647.5Z" fill="#FF0000" fill-rule="evenodd"/><text fill="#FFFFFF" font-family="Calibri,Calibri_MSFontService,sans-serif" font-weight="400" font-size="12" transform="translate(709.115 651)">16</text></g></svg>